<?xml version="1.0" encoding="utf-8"?>
<!-- Generator: Adobe Illustrator 21.0.2, SVG Export Plug-In . SVG Version: 6.00 Build 0)  -->
<svg version="1.1" id="Capa_1" xmlns="http://www.w3.org/2000/svg" xmlns:xlink="http://www.w3.org/1999/xlink" x="0px" y="0px"
	 viewBox="0 0 54 54" style="enable-background:new 0 0 54 54;" xml:space="preserve">
<style type="text/css">
	.st0{fill:#52788F;}
	.st1{fill:#FFFFFF;stroke:#FFFFFF;stroke-width:3;stroke-miterlimit:10;}
	.st2{fill:#FFFFFF;}
</style>
<g>
	<path class="st0" d="M27,0C12.1,0,0,12.1,0,27s12.1,27,27,27s27-12.1,27-27S41.9,0,27,0z"/>
	<path class="st1" d="M31.7,40c-0.3,0-0.5-0.1-0.7-0.3L19.5,28.2c-0.7-0.7-0.7-1.8,0-2.4L31,14.3c0.4-0.4,1-0.4,1.4,0s0.4,1,0,1.4
		L21.1,27l11.3,11.3c0.4,0.4,0.4,1,0,1.4C32.2,39.9,32,40,31.7,40z"/>
</g>
<rect x="57.2" class="st0" width="54" height="54"/>
<text transform="matrix(1 0 0 1 -30.6665 37.3333)" class="st2" style="font-family:'Monaco'; font-size:40px;">c</text>
</svg>
